<svg width="40" height="40" viewBox="0 0 40 40" fill="none" xmlns="http://www.w3.org/2000/svg">
<path fill-rule="evenodd" clip-rule="evenodd" d="M6.66602 8.33333V31.6667C6.66602 34.4281 8.90459 36.6667 11.666 36.6667H28.3327C31.0941 36.6667 33.3327 34.4281 33.3327 31.6667V15C33.3327 12.2386 31.0941 10 28.3327 10H8.33268C7.41221 10 6.66602 9.25381 6.66602 8.33333ZM12.0827 20C12.0827 19.3096 12.6423 18.75 13.3327 18.75H26.666C27.3564 18.75 27.916 19.3096 27.916 20C27.916 20.6904 27.3564 21.25 26.666 21.25H13.3327C12.6423 21.25 12.0827 20.6904 12.0827 20ZM12.0827 25.8333C12.0827 25.143 12.6423 24.5833 13.3327 24.5833H22.4993C23.1897 24.5833 23.7493 25.143 23.7493 25.8333C23.7493 26.5237 23.1897 27.0833 22.4993 27.0833H13.3327C12.6423 27.0833 12.0827 26.5237 12.0827 25.8333Z" fill="url(#paint0_linear_16_1390)"/>
<path d="M7.34732 6.81183C7.92813 7.07231 8.33268 7.65558 8.33268 8.33333H28.3327C28.9082 8.33333 29.4666 8.40626 29.9993 8.54336V7.17673C29.9993 5.14824 28.2027 3.59003 26.1946 3.8769L8.19867 6.44775C7.87788 6.49358 7.58719 6.6229 7.34732 6.81183Z" fill="url(#paint1_linear_16_1390)"/>
<defs>
<linearGradient id="paint0_linear_16_1390" x1="19.9993" y1="3.84277" x2="19.9993" y2="36.6667" gradientUnits="userSpaceOnUse">
<stop stop-color="#415BB3"/>
<stop offset="1" stop-color="#C230CF"/>
</linearGradient>
<linearGradient id="paint1_linear_16_1390" x1="19.9993" y1="3.84277" x2="19.9993" y2="36.6667" gradientUnits="userSpaceOnUse">
<stop stop-color="#415BB3"/>
<stop offset="1" stop-color="#C230CF"/>
</linearGradient>
</defs>
</svg>
