<svg width="43" height="43" viewBox="0 0 43 43" fill="none" xmlns="http://www.w3.org/2000/svg">
<path fill-rule="evenodd" clip-rule="evenodd" d="M1.79169 36.2633C1.79169 35.5113 2.4073 34.9017 3.16669 34.9017H39.8334C40.5927 34.9017 41.2084 35.5113 41.2084 36.2633C41.2084 37.0154 40.5927 37.625 39.8334 37.625H3.16669C2.4073 37.625 1.79169 37.0154 1.79169 36.2633Z" fill="url(#paint0_linear_17_3)"/>
<path fill-rule="evenodd" clip-rule="evenodd" d="M6.61093 6.97029C5.00002 8.56558 5.00002 11.1332 5.00002 16.2683V25.3461C5.00002 28.7696 5.00002 30.4813 6.07396 31.5448C7.1479 32.6083 8.87639 32.6083 12.3334 32.6083H30.6667C34.1237 32.6083 35.8521 32.6083 36.9261 31.5448C38 30.4813 38 28.7696 38 25.3461V16.2683C38 11.1332 38 8.56558 36.3891 6.97029C34.7782 5.375 32.1855 5.375 27 5.375H16C10.8146 5.375 8.22185 5.375 6.61093 6.97029ZM14.625 27.1617C14.625 26.4096 15.2406 25.8 16 25.8H27C27.7594 25.8 28.375 26.4096 28.375 27.1617C28.375 27.9137 27.7594 28.5233 27 28.5233H16C15.2406 28.5233 14.625 27.9137 14.625 27.1617Z" fill="url(#paint1_linear_17_3)"/>
<defs>
<linearGradient id="paint0_linear_17_3" x1="21.5" y1="5.375" x2="21.5" y2="37.625" gradientUnits="userSpaceOnUse">
<stop stop-color="#415BB3"/>
<stop offset="1" stop-color="#B933CE"/>
</linearGradient>
<linearGradient id="paint1_linear_17_3" x1="21.5" y1="5.375" x2="21.5" y2="37.625" gradientUnits="userSpaceOnUse">
<stop stop-color="#415BB3"/>
<stop offset="1" stop-color="#B933CE"/>
</linearGradient>
</defs>
</svg>
